#!OML:ASF E:\emotionWalksFemale\Project 1\Capture day 1\Session 1\Female1.ASF
:FULLY-SPECIFIED
:DEGREES
726
root 7.21446 15.3561 28.3582 181.281 2.96362 -179.05
lowerback 8.01939 1.82082 -0.294081
upperback 2.39794 2.56432 0.0202007
thorax -2.02637 1.34839 -0.0630975
lowerneck -4.68234 -2.44124 -5.89121
upperneck -0.578551 -3.08769 6.36112
head 0.842561 -1.50484 3.0036
rclavicle -1.1045e-014 7.95139e-016
rhumerus -27.379 7.24243 -88.3117
rradius 34.9616
rwrist 16.6766
rhand -7.04647 -54.312
rfingers 7.12502
rthumb 18.8261 -803.421
lclavicle -1.1045e-014 7.95139e-016
lhumerus -34.1013 6.06554 82.668
lradius 37.393
lwrist -11.4453
lhand -5.55075 -37.3392
lfingers 7.12502
lthumb 20.2642 -8.37632
rfemur -8.18459 0.366164 22.0754
rtibia 63.84
rfoot 11.1566 -7.3498
rtoes 7.35249
lfemur -15.3991 -11.5134 -26.1226
ltibia 29.255
lfoot -18.1119 10.4878
ltoes -10.9874
727
root 7.20249 15.3638 28.3159 181.157 3.01082 -179.07
lowerback 8.3686 1.80397 -0.336547
upperback 2.26703 2.53355 0.0834012
thorax -2.35941 1.33072 0.0125538
lowerneck -4.71872 -2.44441 -6.11132
upperneck -0.342465 -3.08163 6.43935
head 0.931049 -1.4973 3.07194
rclavicle -1.98909e-014 1.68967e-015
rhumerus -27.7357 6.94238 -87.9931
rradius 35.2204
rwrist 17.0716
rhand -6.74685 -54.5642
rfingers 7.12502
rthumb 19.1143 -803.645
lclavicle -1.98909e-014 1.68967e-015
lhumerus -34.2572 6.2017 82.685
lradius 37.4514
lwrist -11.381
lhand -5.4163 -37.2869
lfingers 7.12502
lthumb 20.3934 -8.33778
rfemur -9.0329 0.0664124 21.9365
rtibia 65.0861
rfoot 10.2125 -7.49683
rtoes 8.02695
lfemur -14.8989 -11.3972 -26.2415
ltibia 28.9162
lfoot -18.3838 10.1165
ltoes -8.22682
728
root 7.19122 15.3703 28.2761 181.04 3.02819 -179.112
lowerback 8.53112 1.8209 -0.319785
upperback 2.26256 2.55903 0.0800191
thorax -2.45321 1.34418 -0.00918799
lowerneck -4.74367 -2.49876 -6.27794
upperneck -0.274473 -3.1494 6.615
head 0.970002 -1.52889 3.16183
rclavicle 4.47266e-015 -8.94531e-016
rhumerus -27.7477 6.60327 -87.7157
rradius 35.262
rwrist 17.2894
rhand -6.33536 -54.392
rfingers 7.12502
rthumb 19.5099 -803.433
lclavicle 4.47266e-015 -8.94531e-016
lhumerus -34.2573 5.82825 82.8013
lradius 37.5853
lwrist -11.1404
lhand -5.59274 -37.241
lfingers 7.12502
lthumb 20.2238 -8.27385
rfemur -9.9057 -0.285544 21.7919
rtibia 66.2875
rfoot 9.05409 -7.40038
rtoes 7.01029
lfemur -14.4526 -11.265 -26.3767
ltibia 28.6102
lfoot -18.4477 9.82239
ltoes -6.90736
729
root 7.18088 15.3756 28.2367 180.988 2.98752 -179.209
lowerback 8.4172 1.79534 -0.369681
upperback 2.35508 2.5261 0.0495377
thorax -2.29515 1.33039 -0.00283902
lowerneck -4.59376 -2.5209 -6.25237
upperneck -0.486514 -3.18551 6.67441
head 0.87859 -1.55084 3.17769
rclavicle 6.70898e-015 -2.38542e-015
rhumerus -27.58 6.596 -87.6138
rradius 35.1585
rwrist 17.0246
rhand -6.39482 -54.347
rfingers 7.12502
rthumb 19.4528 -803.394
lclavicle 6.70898e-015 -2.38542e-015
lhumerus -34.1455 5.52107 82.867
lradius 37.6888
lwrist -10.8915
lhand -5.84278 -37.3804
lfingers 7.12502
lthumb 19.9835 -8.3879
rfemur -10.8681 -0.689528 21.611
rtibia 67.4239
rfoot 8.02637 -7.23613
rtoes 4.95667
lfemur -14.1222 -11.0957 -26.5764
ltibia 28.3746
lfoot -18.3593 9.74602
ltoes -8.14253
730
root 7.169 15.3794 28.193 180.998 2.96351 -179.253
lowerback 8.24912 1.82514 -0.308126
upperback 2.38958 2.57172 0.053027
thorax -2.16425 1.3531 -0.0311593
lowerneck -4.32302 -2.59955 -6.23362
upperneck -0.733301 -3.29652 6.621
head 0.75753 -1.61186 3.15552
rclavicle 1.53064e-014 -2.33572e-015
rhumerus -27.6209 6.48921 -87.4002
rradius 35.1795
rwrist 16.6398
rhand -6.33664 -54.1124
rfingers 7.12502
rthumb 19.5087 -803.154
lclavicle 1.53064e-014 -2.33572e-015
lhumerus -34.0208 5.32487 83.009
lradius 37.744
lwrist -10.8079
lhand -5.93579 -37.422
lfingers 7.12502
lthumb 19.8941 -8.42022
rfemur -11.8696 -0.996401 21.5092
rtibia 68.4883
rfoot 7.07763 -7.13375
rtoes 3.69021
lfemur -13.8483 -10.9676 -26.7156
ltibia 28.1922
lfoot -18.3531 9.71103
ltoes -8.92404
731
root 7.15681 15.3827 28.1518 180.946 3.0096 -179.187
lowerback 8.26033 1.84292 -0.188943
upperback 2.40173 2.60706 0.0854477
thorax -2.1544 1.37094 -0.0681426
lowerneck -4.35606 -2.64949 -6.27214
upperneck -0.610549 -3.36237 6.65985
head 0.809237 -1.64268 3.17383
rclavicle -1.41634e-015 -9.44227e-016
rhumerus -27.6904 6.26599 -87.1786
rradius 35.2005
rwrist 16.5832
rhand -6.02696 -53.9757
rfingers 7.12502
rthumb 19.8064 -802.987
lclavicle -1.41634e-015 -9.44227e-016
lhumerus -33.8765 5.27885 83.0827
lradius 37.7708
lwrist -10.8564
lhand -6.01186 -37.3752
lfingers 7.12502
lthumb 19.821 -8.36588
rfemur -12.8018 -1.31729 21.5076
rtibia 69.5021
rfoot 6.29121 -6.94969
rtoes 2.30509
lfemur -13.5154 -10.8447 -26.7419
ltibia 28.0347
lfoot -18.5412 9.54512
ltoes -7.38026
732
root 7.14618 15.3809 28.1128 180.828 3.073 -179.16
lowerback 8.31333 1.75761 -0.247452
upperback 2.43827 2.49308 0.119507
thorax -2.14973 1.31572 0.00987218
lowerneck -4.56362 -2.55489 -6.2187
upperneck -0.34296 -3.23737 6.70719
head 0.923201 -1.57538 3.18116
rclavicle -6.06914e-015 3.47873e-016
rhumerus -27.6981 6.32383 -87.1357
rradius 35.1884
rwrist 16.487
rhand -6.00611 -54.0299
rfingers 7.12502
rthumb 19.8265 -803.039
lclavicle -6.06914e-015 3.47873e-016
lhumerus -33.8748 5.46305 82.9545
lradius 37.8695
lwrist -10.863
lhand -6.17179 -37.493
lfingers 7.12502
lthumb 19.6672 -8.46786
rfemur -13.6892 -1.63984 21.4706
rtibia 70.5159
rfoot 5.645 -6.86591
rtoes 1.07387
lfemur -13.1638 -10.7189 -26.8124
ltibia 27.9188
lfoot -18.6919 9.45102
ltoes -6.63409
733
root 7.13614 15.3785 28.0721 180.761 3.04318 -179.252
lowerback 8.32677 1.71624 -0.36943
upperback 2.44188 2.4295 0.167947
thorax -2.16022 1.28433 0.133974
lowerneck -4.63101 -2.56483 -6.3349
upperneck -0.253697 -3.242 6.71045
head 0.96695 -1.57548 3.20377
rclavicle 3.02774e-014 -1.31695e-015
rhumerus -27.7221 6.21484 -86.8939
rradius 35.1796
rwrist 16.4949
rhand -6.36495 -54.2914
rfingers 7.12502
rthumb 19.4815 -803.335
lclavicle 3.02774e-014 -1.31695e-015
lhumerus -33.9307 5.56271 82.9896
lradius 37.9963
lwrist -10.9169
lhand -6.34905 -37.8538
lfingers 7.12502
lthumb 19.4968 -8.81137
rfemur -14.6523 -1.8986 21.3355
rtibia 71.4974
rfoot 4.74614 -7.14145
rtoes 1.66067
lfemur -12.8691 -10.6856 -27.0057
ltibia 27.8084
lfoot -18.7633 9.5565
ltoes -7.2655
734
root 7.12833 15.379 28.0317 180.641 3.02301 -179.317
lowerback 8.43401 1.72791 -0.497439
upperback 2.4383 2.43769 0.258255
thorax -2.23237 1.28916 0.293848
lowerneck -4.59462 -2.63236 -6.47098
upperneck -0.213981 -3.3233 6.65834
head 0.980922 -1.61552 3.20976
rclavicle -1.86104e-014 1.17097e-015
rhumerus -27.7944 6.01498 -86.5899
rradius 35.1467
rwrist 16.5911
rhand -6.49701 -54.4792
rfingers 7.12502
rthumb 19.3545 -803.536
lclavicle -1.86104e-014 1.17097e-015
lhumerus -33.9326 5.67605 83.1026
lradius 38.0769
lwrist -10.9912
lhand -6.33416 -38.1377
lfingers 7.12502
lthumb 19.5111 -9.09669
rfemur -15.542 -2.11081 21.2592
rtibia 72.3603
rfoot 3.70145 -7.40165
rtoes 2.95909
lfemur -12.4591 -10.6568 -27.1613
ltibia 27.6619
lfoot -19.0342 9.5364
ltoes -6.34169
